<svg width="128" height="40" viewBox="0 0 128 40" fill="none" xmlns="http://www.w3.org/2000/svg">
<g clip-path="url(#clip0_2361_5668)">
<path d="M25.9562 22.2872C25.828 21.9888 25.6117 21.4887 25.6117 21.4887L25.1231 20.4482C25.1231 20.4482 19.6515 8.70385 19.6355 8.67965C19.5874 8.58286 19.5394 8.50219 19.4833 8.4296C19.3631 8.21988 19.1388 8.09082 18.8985 8.09082H15.9184C15.5419 8.09082 15.1013 8.46186 15.3176 8.96196C15.4458 9.26041 17.825 14.3663 17.825 14.3663H14.4684C14.1319 14.3663 13.8516 14.6405 13.8516 14.9874V17.383C13.8516 17.7218 14.1239 18.0041 14.4604 18.0041H19.4993L21.5822 22.505C21.5982 22.5292 21.6062 22.5534 21.6222 22.5776C21.6703 22.6744 21.7184 22.7551 21.7745 22.8277C21.8946 23.0454 22.1189 23.1664 22.3593 23.1664C22.3593 23.1664 22.3673 23.1664 22.3753 23.1664H25.3394C25.7159 23.1664 26.1565 22.7954 25.9402 22.2953" fill="black"/>
<path d="M30.7304 15.0033H32.7572C32.9094 15.0033 33.0696 14.971 33.2379 14.9146C33.4061 14.8501 33.5583 14.7533 33.6945 14.6242C33.8307 14.4951 33.9508 14.3338 34.039 14.1402C34.1271 13.9466 34.1751 13.7208 34.1751 13.4627C34.1751 13.3256 34.1511 13.1642 34.1111 12.9787C34.063 12.7932 33.9909 12.6157 33.8787 12.4463C33.7666 12.277 33.6224 12.1318 33.4381 12.0108C33.2539 11.8978 33.0296 11.8333 32.7572 11.8333H30.7304C30.6022 11.8333 30.4981 11.8817 30.41 11.9785C30.3218 12.0753 30.2738 12.1882 30.2738 12.3253V14.5032C30.2738 14.6403 30.3218 14.7613 30.41 14.8501C30.4981 14.9468 30.6102 14.9952 30.7384 14.9952M29.8172 23.1017H26.9412C26.813 23.1017 26.7009 23.0533 26.6128 22.9565C26.5246 22.8597 26.4766 22.7468 26.4766 22.6097V8.54233C26.4766 8.4052 26.5246 8.29228 26.6128 8.19548C26.7009 8.09869 26.813 8.05029 26.9412 8.05029H32.9094C33.6544 8.05029 34.3354 8.18742 34.9602 8.4536C35.5851 8.71978 36.1218 9.09889 36.5624 9.57479C37.003 10.0588 37.3475 10.6234 37.5959 11.2848C37.8442 11.9462 37.9724 12.6722 37.9724 13.4627C37.9724 13.8982 37.9243 14.3338 37.8282 14.7694C37.732 15.205 37.5959 15.6083 37.4116 15.9954C37.2354 16.3826 37.0191 16.7295 36.7787 17.036C36.5384 17.3425 36.258 17.6006 35.9536 17.8103C35.8495 17.891 35.7854 17.9958 35.7533 18.1088C35.7213 18.2217 35.7453 18.3346 35.8174 18.4476C36.3061 19.1332 36.8188 19.843 37.3555 20.5689C37.8923 21.2949 38.3729 21.9644 38.7975 22.5693C38.8776 22.6823 38.8936 22.7952 38.8536 22.9323C38.8135 23.0614 38.7334 23.1259 38.6052 23.1259H35.0323C34.9042 23.1259 34.768 23.0856 34.6158 23.013C34.4716 22.9404 34.3594 22.8436 34.2793 22.7387C33.8707 22.166 33.4702 21.5772 33.0696 20.9884C32.6691 20.3996 32.2685 19.8027 31.876 19.1977C31.7959 19.0848 31.6917 18.996 31.5475 18.9235C31.4113 18.8509 31.2752 18.8105 31.147 18.8105H30.7304C30.6022 18.8105 30.4981 18.8589 30.41 18.9557C30.3218 19.0525 30.2738 19.1654 30.2738 19.3026V22.6339C30.2738 22.771 30.2257 22.892 30.1376 22.9807C30.0495 23.0775 29.9373 23.1259 29.8091 23.1259" fill="black"/>
<path d="M53.4889 19.1168C53.1204 19.7621 52.7118 20.3429 52.2632 20.8672C51.8146 21.3915 51.3099 21.8432 50.7571 22.2062C50.2044 22.5772 49.5795 22.8595 48.9066 23.0692C48.2256 23.2709 47.4806 23.3758 46.6635 23.3758C45.6381 23.3758 44.6768 23.166 43.7875 22.7547C42.8903 22.3433 42.1052 21.7867 41.4403 21.085C40.7674 20.3832 40.2387 19.5605 39.8541 18.6167C39.4696 17.673 39.2773 16.6647 39.2773 15.5919C39.2773 14.5191 39.4696 13.5109 39.8541 12.5671C40.2387 11.6234 40.7674 10.8006 41.4403 10.0989C42.1132 9.39714 42.8983 8.84057 43.7875 8.4292C44.6848 8.01782 45.6461 7.80811 46.6635 7.80811C47.5047 7.80811 48.2657 7.91297 48.9466 8.11462C49.6276 8.31627 50.2364 8.60665 50.7892 8.9777C51.3419 9.34874 51.8386 9.80044 52.2792 10.3247C52.7198 10.8571 53.1284 11.4298 53.4969 12.067C53.561 12.18 53.577 12.2929 53.537 12.4139C53.4969 12.5349 53.4248 12.6236 53.3046 12.6801L50.5809 13.8335C50.4527 13.89 50.3245 13.89 50.1964 13.8335C50.0682 13.7771 49.972 13.6964 49.908 13.5835C49.5395 12.9543 49.0908 12.4703 48.5621 12.1316C48.0414 11.7928 47.4005 11.6234 46.6635 11.6234C46.1748 11.6234 45.7182 11.7363 45.2936 11.9541C44.861 12.1719 44.4925 12.4703 44.1721 12.8333C43.8516 13.1963 43.6033 13.6238 43.4271 14.0997C43.2508 14.5837 43.1547 15.0757 43.1547 15.5839C43.1547 16.1082 43.2428 16.6083 43.419 17.0842C43.5953 17.5601 43.8516 17.9714 44.1641 18.3344C44.4845 18.6893 44.853 18.9797 45.2856 19.1975C45.7102 19.4153 46.1748 19.5282 46.6555 19.5282C47.3605 19.5282 47.9933 19.3427 48.5621 18.9797C49.1309 18.6167 49.5795 18.1489 49.916 17.5681C49.9801 17.4552 50.0762 17.3745 50.1964 17.3181C50.3165 17.2616 50.4447 17.2616 50.5729 17.3181L53.2966 18.4715C53.4088 18.528 53.4889 18.6087 53.5289 18.7297C53.569 18.8426 53.553 18.9636 53.4889 19.0926" fill="black"/>
<path d="M58.7308 12.3253V13.1884C58.7308 13.3256 58.7789 13.4465 58.867 13.5353C58.9551 13.6321 59.0673 13.6805 59.1955 13.6805H64.3946C64.5228 13.6805 64.6349 13.7289 64.7231 13.8257C64.8112 13.9224 64.8592 14.0354 64.8592 14.1725V17.0118C64.8592 17.1489 64.8112 17.2618 64.7231 17.3586C64.6349 17.4554 64.5228 17.5038 64.3946 17.5038H59.1955C59.0673 17.5038 58.9551 17.5522 58.867 17.649C58.7789 17.7458 58.7308 17.8587 58.7308 17.9958V18.7783C58.7308 18.9154 58.7789 19.0283 58.867 19.1251C58.9551 19.2219 59.0673 19.2703 59.1955 19.2703H65.1637C65.2918 19.2703 65.404 19.3187 65.4921 19.4155C65.5802 19.5123 65.6283 19.6252 65.6283 19.7623V22.6016C65.6283 22.7387 65.5802 22.8597 65.4921 22.9485C65.404 23.0453 65.2918 23.0936 65.1637 23.0936H55.3982C55.2701 23.0936 55.1579 23.0453 55.0698 22.9485C54.9817 22.8517 54.9336 22.7387 54.9336 22.6016V8.54233C54.9336 8.4052 54.9817 8.29228 55.0698 8.19548C55.1579 8.09869 55.2701 8.05029 55.3982 8.05029H65.1637C65.2918 8.05029 65.404 8.09869 65.4921 8.19548C65.5802 8.29228 65.6283 8.4052 65.6283 8.54233V11.3413C65.6283 11.4784 65.5802 11.5994 65.4921 11.6881C65.404 11.7849 65.2918 11.8333 65.1637 11.8333H59.1955C59.0673 11.8333 58.9551 11.8817 58.867 11.9785C58.7789 12.0753 58.7308 12.1882 58.7308 12.3253Z" fill="black"/>
<path d="M69.2309 17.9233C69.9198 18.4073 70.6088 18.7783 71.2817 19.0525C71.9626 19.3268 72.5955 19.4639 73.1803 19.4639C73.7651 19.4639 74.1737 19.3752 74.4621 19.2058C74.7585 19.0364 74.9027 18.7783 74.9027 18.4315C74.9027 18.254 74.8386 18.1088 74.7104 18.012C74.5822 17.9072 74.414 17.8265 74.1977 17.7539C73.9894 17.6894 73.7411 17.6329 73.4607 17.5926C73.1803 17.5522 72.8919 17.4958 72.5955 17.4312C72.3151 17.3748 71.9867 17.3103 71.6101 17.2377C71.2336 17.1651 70.8491 17.0521 70.4485 16.9069C70.048 16.7618 69.6555 16.5843 69.2709 16.3585C68.8784 16.1407 68.5339 15.8584 68.2215 15.5115C67.9171 15.1647 67.6687 14.7614 67.4845 14.2855C67.3002 13.8095 67.2041 13.253 67.2041 12.6077C67.2041 11.664 67.3803 10.8815 67.7248 10.2604C68.0693 9.63936 68.5099 9.15539 69.0386 8.79241C69.5673 8.42943 70.1601 8.17132 70.8171 8.03419C71.4659 7.889 72.1068 7.81641 72.7157 7.81641C73.7891 7.81641 74.7505 7.9858 75.6076 8.32457C76.4568 8.66335 77.2739 9.15539 78.051 9.79261C78.1551 9.88941 78.2112 10.0023 78.2272 10.1395C78.2433 10.2766 78.2112 10.3976 78.1311 10.5105L76.633 12.7932C76.5529 12.9061 76.4568 12.9707 76.3286 13.0029C76.2004 13.0271 76.0883 13.0029 75.9842 12.9223C75.3272 12.4867 74.7264 12.1721 74.1576 11.9866C73.5969 11.8011 73.0762 11.7124 72.6035 11.7124C72.4593 11.7124 72.2991 11.7124 72.1148 11.7204C71.9306 11.7204 71.7543 11.7527 71.5861 11.8011C71.4179 11.8495 71.2817 11.9301 71.1775 12.035C71.0654 12.1479 71.0173 12.2931 71.0173 12.4867C71.0173 12.6803 71.1535 12.8497 71.4179 13.0029C71.6903 13.1562 71.9947 13.2853 72.3391 13.3901C72.6836 13.503 73.0201 13.5837 73.3405 13.6482C73.661 13.7128 73.8612 13.745 73.9574 13.7612C74.414 13.8579 74.9267 13.9951 75.4714 14.1806C76.0242 14.3661 76.5369 14.6404 77.0176 15.0033C77.4982 15.3663 77.8988 15.8422 78.2272 16.423C78.5557 17.0037 78.7159 17.7378 78.7159 18.617C78.7159 19.4397 78.5797 20.1495 78.3154 20.7464C78.043 21.3433 77.6745 21.8354 77.1938 22.2145C76.7132 22.6016 76.1364 22.884 75.4634 23.0695C74.7905 23.255 74.0455 23.3437 73.2284 23.3437C72.5635 23.3437 71.9386 23.2873 71.3698 23.1663C70.793 23.0533 70.2563 22.892 69.7596 22.6823C69.2629 22.4807 68.7983 22.2306 68.3657 21.9483C67.9331 21.666 67.5405 21.3675 67.1881 21.0529C67.0839 20.9723 67.0278 20.8594 67.0118 20.7142C66.9958 20.569 67.0278 20.4399 67.1079 20.3351L68.582 18.0523C68.6621 17.9394 68.7582 17.8749 68.8864 17.8426C69.0146 17.8184 69.1267 17.8426 69.2309 17.9072" fill="black"/>
<path d="M30.4173 28.8285V29.6755C30.4173 29.8126 30.4654 29.9255 30.5535 30.0142C30.6416 30.111 30.7458 30.1594 30.874 30.1594H36.001C36.1292 30.1594 36.2333 30.2078 36.3214 30.3046C36.4096 30.4014 36.4576 30.5143 36.4576 30.6515V33.4988C36.4576 33.6359 36.4096 33.7489 36.3214 33.8457C36.2333 33.9424 36.1292 33.9908 36.001 33.9908H30.874C30.7458 33.9908 30.6416 34.0392 30.5535 34.136C30.4654 34.2328 30.4173 34.3458 30.4173 34.4829V38.9838C30.4173 39.1209 30.3693 39.2338 30.2811 39.3306C30.193 39.4274 30.0889 39.4758 29.9607 39.4758H27.1088C26.9806 39.4758 26.8765 39.4274 26.7883 39.3306C26.7002 39.2338 26.6602 39.1209 26.6602 38.9838V25.0536C26.6602 24.9164 26.7082 24.8035 26.7963 24.7067C26.8845 24.6099 26.9886 24.5615 27.1168 24.5615H36.762C36.8902 24.5615 36.9944 24.6099 37.0825 24.7067C37.1706 24.8035 37.2187 24.9164 37.2187 25.0536V27.8606C37.2187 27.9977 37.1706 28.1106 37.0825 28.2074C36.9944 28.3042 36.8902 28.3526 36.762 28.3526H30.874C30.7458 28.3526 30.6416 28.401 30.5535 28.4897C30.4654 28.5865 30.4173 28.6995 30.4173 28.8285Z" fill="black"/>
<path d="M42.9404 31.4419H44.9431C45.0953 31.4419 45.2475 31.4097 45.4158 31.3532C45.576 31.2887 45.7282 31.2 45.8724 31.0709C46.0086 30.9418 46.1207 30.7805 46.2169 30.595C46.305 30.4014 46.345 30.1836 46.345 29.9255C46.345 29.7884 46.321 29.6271 46.281 29.4496C46.2409 29.2641 46.1608 29.0866 46.0566 28.9172C45.9525 28.7478 45.8083 28.6027 45.624 28.4897C45.4398 28.3768 45.2155 28.3203 44.9511 28.3203H42.9484C42.8202 28.3203 42.716 28.3687 42.6279 28.4655C42.5398 28.5623 42.4997 28.6753 42.4997 28.8124V30.9741C42.4997 31.1112 42.5398 31.2242 42.6279 31.321C42.716 31.4177 42.8202 31.4661 42.9484 31.4661M42.0351 39.4839H39.1912C39.063 39.4839 38.9589 39.4355 38.8627 39.3387C38.7746 39.2419 38.7266 39.129 38.7266 38.9919V25.0536C38.7266 24.9164 38.7746 24.8035 38.8627 24.7067C38.9509 24.6099 39.055 24.5615 39.1832 24.5615H45.0873C45.8243 24.5615 46.4972 24.6906 47.1141 24.9568C47.7309 25.2229 48.2597 25.594 48.7003 26.0699C49.1329 26.5458 49.4773 27.1104 49.7257 27.7557C49.974 28.4091 50.0942 29.127 50.0942 29.9174C50.0942 30.353 50.0461 30.7805 49.95 31.208C49.8539 31.6355 49.7177 32.0388 49.5414 32.4179C49.3652 32.7971 49.1569 33.1439 48.9166 33.4423C48.6762 33.7489 48.4039 33.9989 48.0995 34.2086C47.9953 34.2893 47.9312 34.3861 47.8992 34.5071C47.8671 34.62 47.8912 34.7329 47.9633 34.8459C48.4439 35.5234 48.9486 36.2252 49.4854 36.9431C50.0141 37.6609 50.4947 38.3224 50.9113 38.9193C50.9834 39.0322 51.0074 39.1451 50.9674 39.2742C50.9273 39.4032 50.8472 39.4678 50.7191 39.4678H47.1862C47.058 39.4678 46.9218 39.4274 46.7776 39.3548C46.6334 39.2822 46.5213 39.1854 46.4412 39.0806C46.0406 38.5079 45.6401 37.9352 45.2395 37.3464C44.847 36.7656 44.4464 36.1687 44.0619 35.5718C43.9898 35.4669 43.8776 35.3702 43.7415 35.2976C43.6053 35.225 43.4691 35.1846 43.3489 35.1846H42.9323C42.8042 35.1846 42.7 35.233 42.6119 35.3298C42.5238 35.4266 42.4837 35.5395 42.4837 35.6767V38.9757C42.4837 39.1128 42.4357 39.2258 42.3475 39.3226C42.2594 39.4194 42.1473 39.4678 42.0271 39.4678" fill="black"/>
<path d="M51.7734 25.0213C51.7734 24.8842 51.8135 24.7713 51.9016 24.6745C51.9897 24.5777 52.0939 24.5293 52.2221 24.5293H55.074C55.2022 24.5293 55.3063 24.5777 55.3944 24.6745C55.4825 24.7713 55.5226 24.8842 55.5226 25.0213V33.2649C55.5226 33.7973 55.6027 34.2329 55.7629 34.5797C55.9231 34.9266 56.1154 35.2008 56.3557 35.3944C56.5881 35.596 56.8444 35.7332 57.1088 35.8138C57.3731 35.8945 57.6135 35.9348 57.8298 35.9348C58.0461 35.9348 58.2864 35.8945 58.5508 35.8138C58.8151 35.7332 59.0635 35.596 59.2958 35.3944C59.5281 35.2008 59.7204 34.9266 59.8806 34.5797C60.0408 34.2329 60.1209 33.7973 60.1209 33.2649V25.0213C60.1209 24.8842 60.161 24.7713 60.2571 24.6745C60.3452 24.5777 60.4494 24.5293 60.5775 24.5293H63.4295C63.5576 24.5293 63.6618 24.5777 63.7499 24.6745C63.838 24.7713 63.8861 24.8842 63.8861 25.0213V33.2649C63.8861 34.2248 63.7419 35.104 63.4615 35.8945C63.1811 36.685 62.7726 37.3545 62.2358 37.911C61.7071 38.4676 61.0662 38.8951 60.3212 39.2016C59.5762 39.5081 58.751 39.6614 57.8378 39.6614C56.9245 39.6614 56.0994 39.5081 55.3544 39.2016C54.6093 38.8951 53.9685 38.4676 53.4397 37.911C52.911 37.3545 52.5024 36.685 52.206 35.8945C51.9176 35.104 51.7734 34.2329 51.7734 33.2649V25.0213Z" fill="black"/>
<path d="M82.0407 28.2801H79.3811C79.2529 28.2801 79.1487 28.3285 79.0606 28.4252C78.9725 28.522 78.9244 28.635 78.9244 28.7721V38.9516C78.9244 39.0887 78.8844 39.2016 78.8043 39.2984C78.7242 39.3952 78.612 39.4436 78.4678 39.4436H75.6239C75.4957 39.4436 75.3916 39.3952 75.3034 39.2984C75.2153 39.2016 75.1673 39.0887 75.1673 38.9516V28.7721C75.1673 28.635 75.1272 28.522 75.0471 28.4252C74.967 28.3285 74.8548 28.2801 74.7186 28.2801H72.0269C71.8988 28.2801 71.7946 28.2317 71.7065 28.1349C71.6184 28.0381 71.5703 27.9251 71.5703 27.788V25.0213C71.5703 24.8842 71.6184 24.7713 71.7065 24.6745C71.7946 24.5777 71.8988 24.5293 72.0269 24.5293H82.0487C82.1849 24.5293 82.2971 24.5777 82.3852 24.6745C82.4653 24.7713 82.5054 24.8842 82.5054 25.0213V27.788C82.5054 27.9251 82.4653 28.0381 82.3852 28.1349C82.3051 28.2317 82.1929 28.2801 82.0487 28.2801" fill="black"/>
<path d="M14.7643 22.2064C14.6361 21.908 14.4198 21.4079 14.4198 21.4079L13.9312 20.3673L12.8497 18.0362L11.2875 14.6646C11.2154 14.4871 11.0472 14.3661 10.8469 14.3661C10.8389 14.3661 10.8229 14.3661 10.8149 14.3661H8.68394C8.30742 14.3661 8.01101 14.6726 8.01101 15.0437V17.278C8.01101 17.6571 8.31543 17.9556 8.68394 17.9556H9.99775C9.37289 18.5605 8.52372 18.9396 7.58643 18.9396C5.6718 18.9396 4.11766 17.3748 4.11766 15.447C4.11766 13.5192 5.63174 12.0511 7.46627 11.9785H7.49831C7.67455 11.9785 7.83477 11.8818 7.91488 11.7446C7.98698 11.6398 8.01101 11.4946 8.01101 11.3736L8.04306 8.24392C8.04306 8.1068 7.98698 7.99387 7.88284 7.90515C7.73063 7.77609 7.51433 7.77609 7.37814 7.78415C6.96157 7.81642 6.6171 7.85675 6.28865 7.92128C2.71573 8.55044 0 11.6801 0 15.4551C0 19.6736 3.39667 23.0937 7.58643 23.0937C8.61184 23.0937 9.58918 22.884 10.4864 22.5129C10.5505 22.642 10.5906 22.7146 10.5986 22.7307C10.7187 22.9485 10.943 23.0695 11.1834 23.0695H14.1635C14.54 23.0695 14.9806 22.6985 14.7643 22.1983" fill="#EF4135"/>
<path d="M4.37506 3.25083C3.64606 1.83926 3.72617 0.411548 4.42313 0.0889025C5.23224 -0.290206 6.31373 0.548673 6.90654 2.01671C7.49936 3.48475 6.88251 5.2835 6.88251 5.2835C6.88251 5.2835 5.13611 4.7108 4.37506 3.24276" fill="#7AC143"/>
<path d="M8.1869 3.79962C8.79574 2.52516 9.96535 1.90407 10.5502 2.25898C11.1269 2.61389 11.1269 3.75928 10.3979 4.96921C9.66894 6.17913 8.06674 6.68729 8.06674 6.68729C8.06674 6.68729 7.54602 5.13053 8.1869 3.80768" fill="#00853F"/>
<path d="M69.7666 39.3629H66.7385C66.5943 39.3629 66.4741 39.3145 66.386 39.2177C66.2979 39.1209 66.2578 39.008 66.2578 38.8709V25.0213C66.2578 24.8842 66.3059 24.7713 66.386 24.6745C66.4741 24.5777 66.5863 24.5293 66.7385 24.5293H69.7666C69.9028 24.5293 70.015 24.5777 70.1111 24.6745C70.2072 24.7713 70.2553 24.8842 70.2553 25.0213V38.8709C70.2553 39.008 70.2072 39.1209 70.1111 39.2177C70.015 39.3145 69.9028 39.3629 69.7746 39.3629" fill="black"/>
<path d="M90.3729 7.78369H89.668V39.9999H90.3729V7.78369Z" fill="black"/>
<path d="M106.594 13.6561C106.33 13.6078 106.065 13.5836 105.801 13.5674L109.101 8.83259L109.118 8.8084C109.31 8.52608 109.118 8.14697 108.773 8.14697H105.561C105.24 8.14697 104.936 8.3083 104.752 8.56641L98.8955 16.9713C98.2866 17.8747 97.862 18.9153 97.6698 20.0526C96.9648 24.2954 99.8087 28.3123 104.023 29.0221C108.236 29.732 112.226 26.8685 112.931 22.6257C113.636 18.3829 110.792 14.366 106.578 13.6561H106.594ZM109.302 22.0127C108.933 24.2309 106.842 25.7312 104.639 25.3601C102.436 24.9891 100.946 22.8838 101.315 20.6656C101.683 18.4474 103.774 16.9471 105.977 17.3182C108.18 17.6892 109.67 19.7945 109.302 22.0127Z" fill="black"/>
<path d="M119.9 15.6242C120.838 15.5758 122.055 14.8015 122.977 14.6885C126.678 14.253 128.336 19.0846 127.935 22.0933C127.551 25.0132 125.292 27.9573 122.416 28.7398C116.92 30.2401 111.553 26.4732 111.801 20.6171C111.929 17.7133 113.972 13.7932 117.401 14.8257C117.649 14.8983 119.812 15.7049 119.884 15.6161" fill="#EF4135"/>
<path d="M119.63 16.963C118.877 13.6317 117.163 10.5505 114.895 7.97737C114.799 7.86444 114.791 7.70312 114.895 7.59019L115.48 7.13849C115.592 7.00136 115.801 7.00136 115.921 7.13849C118.372 9.90517 119.982 13.3172 120.695 16.9469" fill="#7AC143"/>
<path d="M102.759 33.0791H104.898V39.532H102.759V39.1851C102.238 39.532 101.653 39.7014 101.005 39.7014C100.131 39.7014 99.3864 39.3706 98.7615 38.7092C98.1366 38.0478 97.8242 37.2412 97.8242 36.2974C97.8242 35.3537 98.1366 34.539 98.7615 33.8857C99.3864 33.2323 100.131 32.9097 101.005 32.9097C101.678 32.9097 102.262 33.0791 102.759 33.4178V33.0871V33.0791ZM101.437 37.8623C101.974 37.8623 102.415 37.6687 102.759 37.2896V35.2972C102.415 34.9181 101.974 34.7246 101.437 34.7246C101.005 34.7246 100.644 34.8778 100.356 35.1763C100.067 35.4747 99.9231 35.8538 99.9231 36.2894C99.9231 36.725 100.067 37.1041 100.356 37.4025C100.644 37.701 101.005 37.8542 101.437 37.8542V37.8623Z" fill="black"/>
<path d="M110.257 32.9098C111.074 32.9098 111.731 33.176 112.228 33.7003C112.725 34.2246 112.973 34.9425 112.973 35.8459V39.5321H110.834V36.1927C110.834 35.3055 110.441 34.8618 109.656 34.8618C109.248 34.8618 108.863 35.0635 108.495 35.4749V39.5321H106.34V33.0792H108.495V33.5067C109.032 33.1115 109.616 32.9098 110.249 32.9098H110.257ZM109.224 31.7483C109.024 31.6515 108.879 31.6354 108.807 31.708C108.735 31.7806 108.695 31.9016 108.695 32.0709H107.125C107.125 31.6112 107.213 31.224 107.381 30.9175C107.549 30.611 107.766 30.3932 108.03 30.2722C108.287 30.1512 108.559 30.0947 108.839 30.1028C109.12 30.1109 109.384 30.1835 109.616 30.3125L110.121 30.6029C110.321 30.6997 110.466 30.7158 110.538 30.6432C110.61 30.5706 110.65 30.4497 110.65 30.2803H112.22C112.22 30.74 112.132 31.1272 111.964 31.4418C111.795 31.7564 111.579 31.9742 111.315 32.0951C111.058 32.2161 110.786 32.2726 110.506 32.2645C110.225 32.2565 109.961 32.1839 109.728 32.0387L109.224 31.7483Z" fill="black"/>
<path d="M115.001 33.8776C115.674 33.2323 116.507 32.9097 117.525 32.9097C118.542 32.9097 119.375 33.2323 120.04 33.8776C120.705 34.5229 121.034 35.3295 121.034 36.3055C121.034 37.2815 120.705 38.1043 120.04 38.7415C119.375 39.3868 118.534 39.7094 117.525 39.7094C116.515 39.7094 115.658 39.3868 114.993 38.7415C114.328 38.0962 114 37.2896 114 36.3055C114 35.3214 114.336 34.5229 115.001 33.8776ZM116.427 37.459C116.708 37.7574 117.076 37.9107 117.525 37.9107C117.973 37.9107 118.334 37.7574 118.614 37.459C118.895 37.1605 119.031 36.7734 119.031 36.3136C119.031 35.8538 118.887 35.4828 118.606 35.1763C118.326 34.8697 117.965 34.7165 117.525 34.7165C117.084 34.7165 116.708 34.8697 116.427 35.1763C116.147 35.4828 116.003 35.8619 116.003 36.3136C116.003 36.7653 116.147 37.1525 116.427 37.459Z" fill="black"/>
<path d="M123.618 37.3218C123.706 37.8542 124.131 38.1204 124.884 38.1204C125.501 38.1204 125.805 37.9752 125.805 37.6848C125.805 37.4509 125.581 37.3057 125.132 37.2331L123.834 37.0073C123.265 36.9105 122.809 36.7008 122.464 36.37C122.128 36.0393 121.96 35.6038 121.96 35.0633C121.96 34.3858 122.216 33.8615 122.737 33.4824C123.257 33.1033 123.946 32.9097 124.812 32.9097C125.677 32.9097 126.366 33.0791 126.91 33.4259C127.455 33.7727 127.752 34.3374 127.792 35.1279H125.901C125.869 34.6681 125.501 34.4342 124.804 34.4342C124.267 34.4342 123.994 34.5794 123.994 34.8697C123.994 35.1359 124.219 35.3053 124.667 35.386L125.853 35.5876C127.183 35.8457 127.848 36.4991 127.848 37.5396C127.848 38.2495 127.567 38.7818 127.015 39.1448C126.462 39.5078 125.741 39.6933 124.852 39.6933C123.962 39.6933 123.233 39.4997 122.657 39.1045C122.088 38.7173 121.759 38.1123 121.695 37.2977L123.594 37.3138L123.618 37.3218Z" fill="black"/>
<path d="M121.575 16.5437C121.711 16.5437 121.847 16.6244 121.911 16.7534C122.007 16.939 121.927 17.1729 121.743 17.2616C121.302 17.4794 120.742 17.6165 120.165 17.6326C119.492 17.6568 118.859 17.5197 118.386 17.2697C118.202 17.1729 118.13 16.939 118.226 16.7534C118.322 16.5679 118.555 16.4953 118.739 16.5921C119.099 16.7857 119.612 16.8825 120.149 16.8664C120.621 16.8502 121.07 16.7454 121.407 16.576C121.463 16.5518 121.519 16.5356 121.575 16.5356V16.5437Z" fill="#AD2329"/>
</g>
<defs>
<clipPath id="clip0_2361_5668">
<rect width="128" height="40" fill="white"/>
</clipPath>
</defs>
</svg>
